<svg width="14" height="14" xmlns="http://www.w3.org/2000/svg">

 <g>
  <title>background</title>
  <rect fill="none" id="canvas_background" height="402" width="582" y="-1" x="-1"/>
 </g>
 <g>
  <title>Layer 1</title>
  <path id="svg_1" fill="#F2C94C" d="m7.000011,0.431245c0.23788,0 0.45515,0.13504 0.56044,0.34836l1.78597,3.61818l3.99397,0.58378c0.2354,0.0344 0.4308,0.19941 0.5041,0.42566c0.0734,0.22625 0.012,0.47454 -0.1584,0.64049l-2.8895,2.81438l0.6819,3.97595c0.0402,0.2345 -0.0562,0.4715 -0.2486,0.6114c-0.1925,0.1398 -0.4477,0.1582 -0.6583,0.0475l-3.57158,-1.8783l-3.57159,1.8783c-0.21058,0.1107 -0.46576,0.0923 -0.65825,-0.0475c-0.19248,-0.1399 -0.28889,-0.3769 -0.24867,-0.6114l0.68193,-3.97595l-2.88951,-2.81438c-0.17038,-0.16595 -0.2318,-0.41424 -0.15844,-0.64049c0.07336,-0.22625 0.26879,-0.39126 0.50414,-0.42566l3.99397,-0.58378l1.78598,-3.61818c0.10529,-0.21332 0.32255,-0.34836 0.56044,-0.34836zm0,2.03703l-1.37081,2.77711c-0.09096,0.18428 -0.2667,0.31207 -0.47005,0.34179l-3.06638,0.4482l2.21832,2.16065c0.14742,0.14358 0.21471,0.35054 0.17992,0.55337l-0.52339,3.05165l2.74148,-1.4417c0.18211,-0.09579 0.3997,-0.09579 0.58182,0l2.74147,1.4417l-0.52339,-3.05165c-0.03479,-0.20283 0.0325,-0.40979 0.17992,-0.55337l2.21837,-2.16065l-3.06643,-0.4482c-0.20334,-0.02972 -0.37908,-0.15751 -0.47004,-0.34179l-1.37081,-2.77711z" clip-rule="evenodd" fill-rule="evenodd"/>
 </g>
</svg>