<svg width="20.000000000000004" height="20.000000000000004" xmlns="http://www.w3.org/2000/svg">

 <g>
  <title>background</title>
  <rect fill="none" id="canvas_background" height="402" width="582" y="-1" x="-1"/>
 </g>
 <g>
  <title>Layer 1</title>
  <path id="svg_2" fill="#F2C94C" d="m9.999991,3.431245c0.2379,0 0.4552,0.13505 0.5605,0.34836l1.7859,3.61818l3.994,0.58378c0.2354,0.0344 0.4308,0.19941 0.5041,0.42566c0.0734,0.22625 0.012,0.47454 -0.1584,0.64049l-2.8895,2.81443l0.6819,3.9759c0.0402,0.2345 -0.0562,0.4715 -0.2486,0.6114c-0.1925,0.1398 -0.4477,0.1582 -0.6583,0.0475l-3.5716,-1.8783l-3.57157,1.8783c-0.21058,0.1107 -0.46576,0.0923 -0.65825,-0.0475c-0.19248,-0.1399 -0.28889,-0.3769 -0.24867,-0.6114l0.68193,-3.9759l-2.8895,-2.81443c-0.17039,-0.16595 -0.23181,-0.41424 -0.15845,-0.64049c0.07336,-0.22625 0.26879,-0.39126 0.50414,-0.42566l3.99397,-0.58378l1.78598,-3.61818c0.10529,-0.21331 0.32255,-0.34836 0.56042,-0.34836zm0,2.03703l-1.37079,2.77711c-0.09096,0.18428 -0.2667,0.31207 -0.47005,0.34179l-3.06638,0.4482l2.21832,2.16067c0.14742,0.1436 0.21471,0.3505 0.17992,0.5534l-0.52339,3.0516l2.74148,-1.4417c0.18211,-0.0958 0.39969,-0.0958 0.58179,0l2.7415,1.4417l-0.5234,-3.0516c-0.0348,-0.2029 0.0325,-0.4098 0.1799,-0.5534l2.2184,-2.16067l-3.0664,-0.4482c-0.2034,-0.02972 -0.3791,-0.15751 -0.4701,-0.34179l-1.3708,-2.77711z" clip-rule="evenodd" fill-rule="evenodd"/>
 </g>
</svg>